<svg width="868" height="203" viewBox="0 0 868 203" fill="none" xmlns="http://www.w3.org/2000/svg">
    <g clip-path="url(#clip0_201_2)">
        <g clip-path="url(#clip1_201_2)">
            <path d="M501.812 52.0187H517.918L519.613 57.9396L525.547 84.5833L531.48 113.342L532.752 117.571L536.99 117.994L538.262 110.381L543.771 83.7375L550.553 54.5562L551.4 52.0187H567.082L566.658 56.2479L558.605 87.1208L550.553 117.571L548.857 123.915V126.875L553.52 145.06L560.301 171.281L567.93 200.885V201.731H551.824L547.162 181.431L541.652 156.056L537.838 136.179L536.566 131.104H532.752L528.938 150.558L525.547 167.898L520.037 192.427L517.918 201.308L517.494 201.731H501.389L503.084 194.119L513.256 153.942L520.037 127.298V122.646L511.561 89.6583L503.932 60.9L501.812 52.8646V52.0187Z" fill="#FFF"/>
            <path d="M0.847656 2.53748H54.25L56.793 2.96039V17.3396H16.9531L17.377 93.4646L54.25 93.8875L54.6738 94.7333L54.25 108.69L17.377 109.112L16.9531 201.731H1.27148L0.847656 194.119V2.53748Z" fill="#FFF"/>
            <path fill-rule="evenodd" clip-rule="evenodd" d="M105.957 50.3271H94.5137L88.5801 51.1729L82.2227 53.2875L77.9844 55.825L73.7461 60.0542L70.3555 66.8208L68.6602 74.4333L67.8125 85.0063L67.3887 98.9625V152.25L67.8125 167.052L68.2363 174.665L69.084 181.008L70.7793 187.775L72.8984 192.004L75.8652 196.233L77.9844 197.925L82.6465 200.462L90.6992 203H109.771L117.4 200.885L123.334 197.925L127.148 193.696L129.691 189.044L131.387 183.969L132.658 176.779L133.082 167.898V92.1958L132.658 78.2396L132.234 74.4333L130.539 67.2438L128.42 62.1688L125.877 58.7854L121.639 54.9792L117.4 52.8646L112.314 51.1729L105.957 50.3271ZM104.686 63.8604H96.209L94.0898 64.2833L89.0039 66.3979L86.8848 68.9354L85.1895 72.7417L84.3418 80.7771L83.4941 104.46V145.906L84.3418 173.396L84.7656 178.471L85.6133 182.277L87.7324 186.083L90.2754 188.198L94.9375 189.89H105.957L108.924 189.044L112.314 186.929L114.857 183.123L116.129 177.625L116.977 159.44L117.4 140.831V113.765L116.553 84.1604L115.705 73.1646L114.857 70.2042L112.738 67.2437L110.195 65.5521L104.686 63.8604Z" fill="#FFF"/>
            <path fill-rule="evenodd" clip-rule="evenodd" d="M310.666 2.53748H294.561L294.137 52.4416L293.713 65.1291L291.594 64.7062L286.508 57.5166L283.117 54.1333L278.455 51.5958L272.945 50.3271H264.469L259.807 51.5958L255.568 53.7104L252.178 56.6708L249.635 60.0541L247.516 65.1291L245.82 71.8958L244.973 85.0062V167.052L245.396 176.779L245.82 181.431L247.092 187.775L248.787 192.004L251.33 196.233L255.568 200.04L261.502 203H276.336L279.303 201.731L283.541 198.771L287.779 194.119L291.17 189.044L294.137 188.198V193.696L294.561 201.731H311.09L310.666 2.53748ZM277.184 63.4375H272.521L269.979 63.8604L267.859 64.7062L265.316 66.8208L263.197 70.2042L261.926 76.9708L261.502 86.275L261.078 104.037V150.558L261.502 169.59L261.926 177.202L262.35 180.163L264.045 185.238L266.164 187.775L268.707 189.467L272.521 190.312H277.607L280.15 189.89L284.389 188.198L288.203 185.66L291.17 182.277L293.713 177.625L294.561 172.55V83.7375L294.137 77.3938L292.441 73.5875L289.898 69.3583L287.355 67.2438L282.27 64.7062L277.184 63.4375Z" fill="#FFF"/>
            <path fill-rule="evenodd" clip-rule="evenodd" d="M194.537 50.3271H183.094L179.279 50.75L172.074 52.8646L166.141 56.2479L162.75 59.6313L159.359 66.3979L157.664 73.1646L156.816 80.3542L155.969 104.46V148.021L156.393 164.515L156.816 172.55L157.664 180.585L158.936 186.083L160.631 190.312L163.598 194.965L166.564 197.925L171.227 200.462L179.703 203H198.775L203.438 201.731L208.947 199.617L213.186 197.079L215.729 194.119L218.271 189.467L220.391 183.123L221.662 173.396L222.086 159.017V96.8479L221.662 81.6229L221.238 76.5479L219.967 69.3583L217.848 63.4375L214.881 58.7854L211.49 55.825L207.252 53.2875L200.895 51.1729L194.537 50.3271ZM193.689 63.8604H185.213L183.094 64.2833L179.279 65.5521L175.889 68.5125L173.77 73.5875L172.922 84.1604L172.498 98.1167V156.479L172.922 170.012L173.346 176.356L174.193 181.431L176.736 186.506L179.279 188.198L183.941 189.89H194.961L198.775 188.621L202.59 185.238L204.285 181.008L205.133 175.51L205.98 146.329V112.073L205.557 90.9271L205.133 79.0854L204.709 74.4333L203.861 71.05L202.59 68.5125L199.199 65.5521L193.689 63.8604Z" fill="#FFF"/>
            <path fill-rule="evenodd" clip-rule="evenodd" d="M461.125 50.3271H450.105L443.748 51.1729L437.391 53.2875L433.152 55.825L430.186 58.7854L427.643 62.1688L425.523 67.2438L423.828 74.8563L422.98 85.4292L422.557 100.654V153.096L422.98 166.629L423.404 173.819L424.676 183.123L426.795 189.89L429.338 194.119L433.152 197.925L437.814 200.462L446.291 203H465.363L470.025 201.731L475.535 199.617L478.926 197.502L482.74 193.273L485.707 187.352L487.402 180.585L488.25 172.55L488.674 147.598V112.496L488.25 82.4688L487.402 73.5875L486.131 68.0896L484.012 62.5917L481.045 58.3625L477.654 55.4021L472.568 52.8646L467.482 51.1729L461.125 50.3271ZM459.854 63.8604H451.377L447.986 64.7062L443.748 66.8208L441.629 69.7812L439.934 75.2792L439.086 92.6187V159.862L439.934 177.625L440.781 181.854L442.9 186.083L445.443 188.198L450.105 189.89H461.125L465.787 188.198L467.906 186.506L469.602 183.969L471.297 178.471L471.721 172.55L472.568 142.523V114.187L471.721 81.6229L470.873 72.7417L470.025 70.2042L467.906 67.2437L464.516 65.1292L459.854 63.8604Z" fill="#FFF"/>
            <path d="M739.58 43.1375H821.803L822.227 43.9833L821.803 47.7896L817.564 48.2125L816.293 49.9042L815.869 52.0188L817.141 54.1333L818.836 55.825L819.684 57.5167L819.26 60.0542L815.869 64.2833L816.293 67.2438L819.26 71.05L819.684 73.1646L817.141 76.9708L815.869 78.6625L816.293 81.2L818.836 84.5833L819.684 86.275L819.26 88.3896L815.869 92.6188L816.293 95.5792L818.836 98.9625L819.684 100.654L819.26 102.769L816.293 106.152L815.869 106.575L816.293 109.958L817.564 111.227L821.379 111.65L822.227 113.765L821.803 115.879L821.379 116.302H816.293L813.75 114.61L811.631 111.227L810.783 108.69L811.207 105.306L812.902 102.769L814.598 101.923V100.654L812.902 99.8083L811.631 98.1167L810.783 95.1563L811.207 91.35L812.479 88.8125L814.174 86.6979L812.055 85.0063L810.783 80.7771L811.207 76.9708L812.479 74.4333L813.75 73.1646L814.174 71.8958L812.479 71.4729L811.207 68.0896L810.783 64.2833L812.055 60.4771L813.75 58.3625L811.631 55.825L810.783 52.8646V48.2125H806.545L805.273 49.9042L804.85 52.4417L807.816 55.825L808.24 56.2479V60.0542L804.85 64.7063L805.273 67.2438L808.24 70.6271L808.664 73.1646L807.393 75.7021L804.85 78.6625L805.273 81.2L808.24 85.0063V88.3896L806.545 90.9271L804.85 93.0417L805.273 95.5792L807.816 98.9625L808.24 99.8083V102.346L804.85 107.421L805.273 109.958L806.545 111.227L809.936 111.65L811.207 113.342V115.456L809.512 116.725L805.697 116.302L803.154 115.033L800.611 111.227L799.764 108.69L800.188 105.306L801.883 102.769L803.154 101.077L800.611 98.1167L799.764 94.7333L800.188 90.9271L801.883 88.3896L803.578 87.5438L801.035 84.5833L799.764 80.7771L800.188 76.9708L801.883 74.0104L803.154 72.3188L801.459 71.4729L800.188 68.0896L799.764 64.7063L801.035 60.4771L802.307 59.2083L802.73 57.5167L801.035 56.6708L799.764 52.4417V48.2125H795.525L794.254 50.3271V53.2875L796.373 54.9792L797.645 57.9396L796.797 60.9L794.254 63.8604L793.83 65.975L795.102 68.0896L797.221 71.05L797.645 73.1646L796.373 75.7021L794.254 78.2396L793.83 79.9313L795.525 82.8917L797.221 85.0063V88.8125L793.83 93.0417L794.254 95.5792L797.221 99.3854V102.769L794.254 106.575L793.83 108.267L794.678 110.381L795.949 111.227L798.916 111.65L799.764 112.496V115.879L798.916 116.725L794.254 116.302L791.711 114.61L789.168 110.381L788.744 108.69V105.729L790.439 103.192L791.711 101.923H792.559L792.135 100.654L790.016 98.5396L788.744 94.7333L789.168 90.9271L790.863 88.3896L792.135 86.6979L790.016 85.0063L788.744 80.3542L789.168 76.5479L790.863 74.0104L791.711 72.3188L789.592 70.2042L788.744 66.8208V63.4375L790.439 60.0542L791.711 58.7854V57.9396L789.592 55.825L788.744 52.8646L789.168 48.2125H784.506L783.234 50.3271V53.2875L785.777 55.4021L786.625 57.0938V59.6313L783.234 63.8604V67.2438L786.201 70.6271L786.625 73.5875L784.93 76.125L783.234 78.2396V80.7771L784.93 83.3146L786.625 85.4292V87.9667L783.658 91.7729L783.234 92.1958V95.5792L786.201 99.3854L786.625 102.346L783.234 106.575V109.958L784.506 111.227L787.896 111.65L789.168 113.342V115.456L787.896 116.725H784.93L781.963 115.456L778.996 112.073L777.725 109.113V106.152L779.844 102.769L781.539 101.077L778.996 98.9625L777.725 95.5792V92.1958L778.996 89.2354L780.691 87.5438H781.539L778.572 83.7375L777.725 81.2V78.2396L779.844 74.0104L781.115 71.8958L779.42 71.05L777.725 66.8208L778.148 62.5917L779.844 59.6313L780.691 59.2083V57.9396L778.996 56.6708L777.725 52.8646V50.3271L778.148 48.2125H773.486L771.791 50.75L772.215 52.8646L774.334 54.9792L775.605 57.5167L775.182 60.0542L772.639 63.4375L771.791 64.7063L772.215 67.2438L774.758 70.2042L775.605 71.8958L775.182 74.4333L772.215 78.2396V80.7771L775.182 85.0063L775.605 87.9667L773.91 90.5042L772.215 91.35L771.791 94.3104L773.486 96.8479L775.605 100.231L775.182 102.769L772.215 106.575V109.958L773.91 111.227L776.877 111.65L778.148 113.342V115.456L776.453 116.725L772.639 116.302L770.096 114.61L767.553 111.65L767.129 110.381V105.306L769.248 102.346L770.943 100.654L769.248 99.8083L767.129 96.8479L766.705 92.6188L768.4 89.2354L770.096 87.5438H770.943L767.553 83.3146L766.705 80.7771L767.129 76.9708L769.672 73.5875L770.52 71.8958L768.824 71.05L767.553 69.3583L766.705 66.3979L767.129 62.5917L769.248 59.6313H770.096L769.672 57.5167L767.553 55.4021L766.705 52.4417L767.129 47.7896L694.654 47.3667L684.482 46.9438V43.5604L739.58 43.1375Z" fill="#FFF"/>
            <path fill-rule="evenodd" clip-rule="evenodd" d="M337.791 2.53748H375.088L381.445 3.80623L386.955 5.92081L390.77 8.45831L393.736 10.9958L396.703 15.6479L398.822 21.1458L399.67 24.5291L400.518 35.1021V75.7021L399.67 82.8916L397.975 87.9666L395.855 91.7729L392.889 95.1562L388.227 98.1166L386.107 99.3854V103.192L392.465 106.998L395.432 109.958L397.975 114.187L399.67 119.262L400.518 124.76L400.941 136.602V165.783L400.094 178.048L397.975 186.083L395.432 190.735L390.77 195.81L385.684 198.771L379.75 200.462L370.426 201.731H338.215L337.791 162.4V2.53748ZM354.32 108.69H367.459L372.969 109.535L377.207 111.227L380.598 114.187L382.717 118.417L383.988 126.029L384.412 133.219V167.052L383.564 175.087L381.445 180.585L378.479 183.969L375.512 185.66L371.697 186.506L365.764 186.929H356.016L354.32 186.506L353.896 154.365V131.104L354.32 108.69ZM370.85 17.3396H354.32V93.8875H370.002L375.512 92.1959L379.326 89.6584L381.869 85.8521L383.564 79.0854L384.412 66.3979V43.9833L383.988 34.2563L383.141 26.6438L382.293 24.5292L379.75 21.1458L375.936 18.6083L370.85 17.3396Z" fill="#FFF"/>
            <path fill-rule="evenodd" clip-rule="evenodd" d="M755.262 121.377H864.609L865.033 121.8V129.412L864.609 129.835L856.133 130.258L851.895 134.065L848.504 138.294L845.113 145.06L842.146 153.942L838.756 165.783L835.365 174.665L831.551 181.431L826.889 186.506L823.498 189.467L818.412 192.004L812.902 193.696L807.816 194.119L767.553 194.542H701.012L694.23 194.119L688.297 192.427L683.635 189.467L679.396 185.66L676.43 182.277L673.039 177.202L669.225 172.127L663.291 168.321L658.629 166.629L650.576 166.206L649.305 165.783V158.171L649.729 157.748L670.072 157.325L672.615 152.25L676.43 148.444L681.516 145.906L687.449 144.215L690.416 143.792L691.688 138.717L694.654 133.219L698.469 129.412L704.402 126.452L709.912 125.183L714.15 124.76H720.084L726.018 122.646L730.256 121.8H741.699L748.904 123.915L753.566 126.875L757.381 131.104L765.857 132.796L771.791 136.179L775.182 139.562L777.725 143.792L786.201 144.215L792.135 145.06L797.221 146.752L801.883 149.712L805.273 153.942L806.969 157.325L824.346 157.748L825.193 159.44V164.937L823.922 166.206L815.869 166.629L810.783 168.321L806.121 171.281L803.154 174.242L798.492 181.431L795.102 185.66L795.949 186.083H807.816L813.326 185.237L818.412 183.123L822.65 179.317L826.465 173.819L829.432 167.475L832.398 158.594L835.789 146.329L838.756 139.14L841.299 134.487L844.266 129.835H770.52L760.348 128.567L756.533 123.069L755.262 121.377ZM674.734 166.206H799.34L798.492 167.898L794.678 172.973L791.711 177.202L787.896 181.431L784.506 184.392L780.691 186.083L778.572 186.506L762.891 186.929H714.574L695.502 186.506L691.264 185.237L687.449 182.7L685.33 181.008L681.092 175.51L677.701 170.435L674.734 167.052V166.206ZM740.004 129.412H732.375L726.865 130.258L722.627 132.373L711.184 132.796L705.674 134.065L701.859 136.602L699.316 140.831L697.197 149.712L696.35 150.981L685.33 152.673L683.635 153.519L679.396 156.056L678.973 157.748H797.645L798.068 157.325L795.949 155.21L790.863 152.673L785.354 151.827H781.539L773.062 152.673V151.827L769.672 145.06L767.553 142.523L763.738 140.408L753.143 138.717L752.719 138.294L748.904 133.219L745.514 131.104L740.004 129.412Z" fill="#FFF"/>
            <path d="M685.33 21.5687L700.588 22.8375L784.93 30.8729L815.445 33.8333L821.379 34.6791L821.803 36.3708L821.379 38.9083L810.359 38.0625L689.568 26.2208L685.754 25.7979L684.906 25.375L685.33 21.5687Z" fill="#FFF"/>
            <path d="M737.885 129.835L741.275 132.373L745.938 137.448L746.361 139.14L743.818 141.677L742.123 141.254L734.918 134.065L735.342 132.373L737.885 129.835Z" fill="#FFF"/>
            <path d="M753.143 147.175H765.01L765.434 147.598V152.25H753.143V147.175Z" fill="#FFF"/>
            <path d="M736.189 141.254L737.885 141.677L740.004 143.792L739.156 145.483L731.951 152.673L730.256 152.25L728.137 149.712L728.984 148.021L735.342 141.677L736.189 141.254Z" fill="#FFF"/>
            <path d="M715.846 138.294H727.713L728.137 138.717V142.946L727.713 143.369H715.846V138.294Z" fill="#FFF"/>
            <path d="M707.793 139.14H710.76V151.404H706.098L705.674 150.981V139.563L707.793 139.14Z" fill="#FFF"/>
        </g>
    </g>
    <defs>
        <clipPath id="clip0_201_2">
            <rect width="868" height="203" fill="white"/>
        </clipPath>
        <clipPath id="clip1_201_2">
            <rect width="868" height="203" fill="white"/>
        </clipPath>
    </defs>
</svg>